HIERARCHY
ROOT Hips
{
	OFFSET -14.64140 90.27770 -84.91600
	CHANNELS 6 Xposition Yposition Zposition Zrotation Xrotation Yrotation
	JOINT Spine
	{
		OFFSET 0.00000 13.20850 -1.60436
		CHANNELS 3 Zrotation Xrotation Yrotation
		JOINT Spine1
		{
			OFFSET 0.00000 8.61716 0.00000
			CHANNELS 3 Zrotation Xrotation Yrotation
			JOINT Spine2
			{
				OFFSET 0.00000 8.61717 0.00000
				CHANNELS 3 Zrotation Xrotation Yrotation
				JOINT Spine3
				{
					OFFSET 0.00000 8.61717 0.00000
					CHANNELS 3 Zrotation Xrotation Yrotation
					JOINT Neck
					{
						OFFSET 0.00000 11.07920 1.10792
						CHANNELS 3 Zrotation Xrotation Yrotation
						JOINT Neck1
						{
							OFFSET 0.00000 7.08032 0.00000
							CHANNELS 3 Zrotation Xrotation Yrotation
							JOINT Head
							{
								OFFSET 0.00000 7.08031 0.00000
								CHANNELS 3 Zrotation Xrotation Yrotation
								End site
								{
									OFFSET 0.00000 0.00000 0.00000
								}
							}
						}
					}
					JOINT RightShoulder
					{
						OFFSET -0.01000 7.91373 5.19711
						CHANNELS 3 Zrotation Xrotation Yrotation
						JOINT RightArm
						{
							OFFSET -18.41580 0.00000 0.00000
							CHANNELS 3 Zrotation Xrotation Yrotation
							JOINT RightForeArm
							{
								OFFSET -29.11090 0.00000 0.00000
								CHANNELS 3 Zrotation Xrotation Yrotation
								JOINT RightHand
								{
									OFFSET -24.65040 0.00000 0.00000
									CHANNELS 3 Zrotation Xrotation Yrotation
									JOINT RightHandThumb1
									{
										OFFSET -5.35114 -0.85590 3.97906
										CHANNELS 3 Zrotation Xrotation Yrotation
										JOINT RightHandThumb2
										{
											OFFSET -4.52789 0.00000 0.00000
											CHANNELS 3 Zrotation Xrotation Yrotation
											JOINT RightHandThumb3
											{
												OFFSET -2.46976 0.00000 0.00000
												CHANNELS 3 Zrotation Xrotation Yrotation
												End site
												{
													OFFSET 0.00000 0.00000 0.00000
												}
											}
										}
									}
									JOINT RightHandIndex1
									{
										OFFSET -14.26970 0.00000 2.88139
										CHANNELS 3 Zrotation Xrotation Yrotation
										JOINT RightHandIndex2
										{
											OFFSET -5.48836 0.00000 0.00000
											CHANNELS 3 Zrotation Xrotation Yrotation
											JOINT RightHandIndex3
											{
												OFFSET -3.01859 0.00000 0.00000
												CHANNELS 3 Zrotation Xrotation Yrotation
												End site
												{
													OFFSET 0.00000 0.00000 0.00000
												}
											}
										}
									}
									JOINT RightHandMiddle1
									{
										OFFSET -14.26970 0.00000 -0.09147
										CHANNELS 3 Zrotation Xrotation Yrotation
										JOINT RightHandMiddle2
										{
											OFFSET -6.17441 0.00000 0.00000
											CHANNELS 3 Zrotation Xrotation Yrotation
											JOINT RightHandMiddle3
											{
												OFFSET -3.56743 0.00000 0.00000
												CHANNELS 3 Zrotation Xrotation Yrotation
												End site
												{
													OFFSET 0.00000 0.00000 0.00000
												}
											}
										}
									}
									JOINT RightHandRing1
									{
										OFFSET -12.69180 0.00000 -3.06433
										CHANNELS 3 Zrotation Xrotation Yrotation
										JOINT RightHandRing2
										{
											OFFSET -5.62556 0.00000 0.00000
											CHANNELS 3 Zrotation Xrotation Yrotation
											JOINT RightHandRing3
											{
												OFFSET -3.56744 0.00000 0.00000
												CHANNELS 3 Zrotation Xrotation Yrotation
												End site
												{
													OFFSET 0.00000 0.00000 0.00000
												}
											}
										}
									}
									JOINT RightHandPinky1
									{
										OFFSET -11.11390 0.00000 -6.03719
										CHANNELS 3 Zrotation Xrotation Yrotation
										JOINT RightHandPinky2
										{
											OFFSET -4.52789 0.00000 0.00000
											CHANNELS 3 Zrotation Xrotation Yrotation
											JOINT RightHandPinky3
											{
												OFFSET -2.46976 0.00000 0.00000
												CHANNELS 3 Zrotation Xrotation Yrotation
												End site
												{
													OFFSET 0.00000 0.00000 0.00000
												}
											}
										}
									}
								}
							}
						}
					}
					JOINT LeftShoulder
					{
						OFFSET 0.01000 7.91373 5.19711
						CHANNELS 3 Zrotation Xrotation Yrotation
						JOINT LeftArm
						{
							OFFSET 18.41580 0.00000 0.00000
							CHANNELS 3 Zrotation Xrotation Yrotation
							JOINT LeftForeArm
							{
								OFFSET 29.11090 0.00000 0.00000
								CHANNELS 3 Zrotation Xrotation Yrotation
								JOINT LeftHand
								{
									OFFSET 24.65040 0.00000 0.00000
									CHANNELS 3 Zrotation Xrotation Yrotation
									JOINT LeftHandThumb1
									{
										OFFSET 5.35114 -0.85590 3.97906
										CHANNELS 3 Zrotation Xrotation Yrotation
										JOINT LeftHandThumb2
										{
											OFFSET 4.52789 0.00000 0.00000
											CHANNELS 3 Zrotation Xrotation Yrotation
											JOINT LeftHandThumb3
											{
												OFFSET 2.46977 0.00000 0.00000
												CHANNELS 3 Zrotation Xrotation Yrotation
												End site
												{
													OFFSET 0.00000 0.00000 0.00000
												}
											}
										}
									}
									JOINT LeftHandIndex1
									{
										OFFSET 14.26970 0.00000 2.88139
										CHANNELS 3 Zrotation Xrotation Yrotation
										JOINT LeftHandIndex2
										{
											OFFSET 5.48836 0.00000 0.00000
											CHANNELS 3 Zrotation Xrotation Yrotation
											JOINT LeftHandIndex3
											{
												OFFSET 3.01859 0.00000 0.00000
												CHANNELS 3 Zrotation Xrotation Yrotation
												End site
												{
													OFFSET 0.00000 0.00000 0.00000
												}
											}
										}
									}
									JOINT LeftHandMiddle1
									{
										OFFSET 14.26970 0.00000 -0.09147
										CHANNELS 3 Zrotation Xrotation Yrotation
										JOINT LeftHandMiddle2
										{
											OFFSET 6.17440 0.00000 0.00000
											CHANNELS 3 Zrotation Xrotation Yrotation
											JOINT LeftHandMiddle3
											{
												OFFSET 3.56744 0.00000 0.00000
												CHANNELS 3 Zrotation Xrotation Yrotation
												End site
												{
													OFFSET 0.00000 0.00000 0.00000
												}
											}
										}
									}
									JOINT LeftHandRing1
									{
										OFFSET 12.69180 0.00000 -3.06433
										CHANNELS 3 Zrotation Xrotation Yrotation
										JOINT LeftHandRing2
										{
											OFFSET 5.62556 0.00000 0.00000
											CHANNELS 3 Zrotation Xrotation Yrotation
											JOINT LeftHandRing3
											{
												OFFSET 3.56744 0.00000 0.00000
												CHANNELS 3 Zrotation Xrotation Yrotation
												End site
												{
													OFFSET 0.00000 0.00000 0.00000
												}
											}
										}
									}
									JOINT LeftHandPinky1
									{
										OFFSET 11.11390 0.00000 -6.03719
										CHANNELS 3 Zrotation Xrotation Yrotation
										JOINT LeftHandPinky2
										{
											OFFSET 4.52789 0.00000 0.00000
											CHANNELS 3 Zrotation Xrotation Yrotation
											JOINT LeftHandPinky3
											{
												OFFSET 2.46976 0.00000 0.00000
												CHANNELS 3 Zrotation Xrotation Yrotation
												End site
												{
													OFFSET 0.00000 0.00000 0.00000
												}
											}
										}
									}
								}
							}
						}
					}
					JOINT pCube4
					{
						OFFSET 0.00000 10.91090 1.10792
						CHANNELS 3 Zrotation Xrotation Yrotation
						End site
						{
							OFFSET 0.00000 0.00000 0.00000
						}
					}
				}
			}
		}
	}
	JOINT RightUpLeg
	{
		OFFSET -9.98441 0.00000 0.00000
		CHANNELS 3 Zrotation Xrotation Yrotation
		JOINT RightLeg
		{
			OFFSET 0.00000 -42.11790 0.00000
			CHANNELS 3 Zrotation Xrotation Yrotation
			JOINT RightFoot
			{
				OFFSET 0.00000 -45.00020 -0.00001
				CHANNELS 3 Zrotation Xrotation Yrotation
				JOINT RightForeFoot
				{
					OFFSET 0.00000 -3.74820 0.00000
					CHANNELS 3 Zrotation Xrotation Yrotation
					JOINT RightToeBase
					{
						OFFSET 0.00000 0.06325 14.43120
						CHANNELS 3 Zrotation Xrotation Yrotation
						End site
						{
							OFFSET 0.00000 0.00000 0.00000
						}
					}
				}
			}
		}
	}
	JOINT LeftUpLeg
	{
		OFFSET 9.98441 0.00000 0.00000
		CHANNELS 3 Zrotation Xrotation Yrotation
		JOINT LeftLeg
		{
			OFFSET 0.00000 -42.11800 0.00000
			CHANNELS 3 Zrotation Xrotation Yrotation
			JOINT LeftFoot
			{
				OFFSET 0.00000 -45.00070 0.00000
				CHANNELS 3 Zrotation Xrotation Yrotation
				JOINT LeftForeFoot
				{
					OFFSET 0.00000 -3.74824 0.00000
					CHANNELS 3 Zrotation Xrotation Yrotation
					JOINT LeftToeBase
					{
						OFFSET 0.00000 0.06325 14.43110
						CHANNELS 3 Zrotation Xrotation Yrotation
						End site
						{
							OFFSET 0.00000 0.00000 0.00000
						}
					}
				}
			}
		}
	}
}
MOTION
Frames: 4
Frame Time: 0.050000
0.03236712365886932 -0.015460439515409975 0.03634411256600411 -0.015779319567653098 0.008098151661259517 -0.04061881666064091 -4.1738984302869 2.6723883716650816 -0.7031116216351466 -0.8671561528083549 3.6576194721466924 0.4243626392978831 -1.159884035920157 -1.3453788149247023 -0.873230744444031 -0.15775857450163955 0.22563015977863055 -0.8443659820034951 -0.045273779375266096 10.737983991780629 -0.7035120776545856 -0.13701895813870513 -1.5978032972931218 -4.21279463742017 0.2754926198435607 -17.40279276239719 -0.34865628857894493 -2.2174657515166736 1.247628497510086 -13.137674031849686 72.57454643466878 10.461044044490311 11.041797729121317 34.51230409649239 5.986064018771723 95.35462815605304 18.76354080754391 -0.2679368305730331 -3.6623788642915707 4.499311104607837 -0.1328102051535973 -1.6012286851484439 -0.0017204222850295363 0.02674527305094736 -56.245005339715966 0.023781069172137036 -0.03617124134670804 -56.275083363419235 -38.78788194407632 0.01982760820941221 -0.003798093808483048 -0.028860893440430496 -0.0327044373428817 0.0011731535233512759 0.0028533597238318852 0.023449430312308568 0.047880913408677464 -36.73658934007956 -0.03531194929988518 0.01955133089234716 -0.02362120318178759 0.026773710073447397 0.005691280967032272 0.0069762867790633615 0.0037812135960070244 0.03350143528847267 -19.79296767463598 0.02591560584935411 -0.03756864077070669 0.026297889738324448 -0.017754908228827644 0.029122840611470698 0.028672391783984785 0.017026342788343207 0.04811437267739419 24.04037412936534 -0.02593555813026082 -0.03289179877824758 28.895748783950804 0.03442154753447458 -0.02185678189203072 28.85603051897198 0.03283289066241677 0.031528869488401216 3.23460196735048 1.0118447596812725 11.716354861479171 -69.07038639770722 24.735648199772996 -9.392674214405382 -21.274031086372478 4.689748323294122 -75.68331971280708 -14.287521867022237 0.42717482725505806 1.3485304043958573 -0.49453587449890324 0.10605306192937852 -8.128892601717688 0.013537856710987088 0.0021520147565005066 44.537956298211824 -0.03993325335255048 -0.01940910068978269 44.53873461111592 12.495340072292485 0.022999220783251027 -0.0264554808925408 -0.025476742767641496 -0.019508146322514193 -0.03450010352929147 -0.01982302434420013 0.0011178640606931297 -0.014167957006619304 11.123234409395192 0.006982601199472512 0.042008020433467054 0.007118799508104485 0.02494496914294284 -0.028165691274287124 0.027444579847870028 0.022229004445858836 0.03247260570518553 4.7405712219724805 0.03613782663838561 -0.006646886269021314 0.04047316985940992 0.002181490182563938 0.03317643994714403 -0.008890267077857466 -0.02064976446616335 -0.004097516117461926 -5.614786301054852 -0.021749054274418204 0.0284204942416819 -6.698214470083631 0.017950243055878574 -0.00816580308044674 -6.738159406091458 0.047160809448674366 0.0064084578115459374 0.02120135093013474 -0.032034657577630174 0.01833504313824 8.037997717225888 3.4889039034766274 -19.257262217598274 0.003481465227114903 10.396444086583655 0.03439208803904662 -5.595314813726657 -15.66759883484808 3.203969168850867 -0.0412872794927795 0.01776026365787691 0.0300812899238082 -0.010802758297068123 4.6587761879207985 -0.043379230734550044 12.4543302622215 -8.264739990196187 6.874210775967977 -0.02993737191990228 46.421332321104956 -0.014144802168498498 -4.335316538425324 -14.791981936967723 -3.8085792943561003 -0.0468116914815602 0.04925318969696474 -0.03318952367299577 0.0035649865562432316 -10.758064167563148 0.03596011820456906 
0.023558208397044342 0.03540189357243989 -0.001244420503276713 -0.0012886026687075366 0.006510679114431476 -0.03117254461648067 -4.184162102098825 2.597661496936895 -0.6641205162495165 -0.9022905797037207 3.5391767211538294 0.3939377737590531 -1.1690819201084652 -1.3425282563654872 -0.9701086839488804 -0.18066964942380695 0.22428807034569295 -0.8625700956209306 0.011303070144411884 10.604479392084878 -0.7920538784609379 -0.03208904573861827 -1.5672368553665013 -4.449171168678929 0.3283330021270301 -17.267194724732043 -0.409137087053823 -2.034275613503373 1.2319324439718025 -12.941938551153193 72.33638446276821 9.933214193609144 10.934534333301132 36.187152273000294 6.0488594793953085 95.73359346311256 18.992259365806056 -0.2814977552418247 -3.9793538017669756 4.548465797723048 -0.0999076685030056 -1.5972292359424682 -0.00286300441769313 0.000965506952606686 -56.22130559802991 0.0071295297506524975 -0.008279419705775825 -56.23436806764824 -38.758858383304194 0.03456792606754971 0.03214031073916284 -1.1273529704796484e-05 -0.028960243558206814 0.020648437150862908 -0.02406014101607542 -0.03300888633085171 0.003990497114452087 -36.72378087117336 0.013998937310437732 -0.0049286969051307705 -0.01026796499058166 0.03905388257135562 0.02475316880739197 0.044740419361139476 -0.020511681307548053 -0.008059017167929854 -19.732587185942585 0.04574767721987605 0.008886677980177001 -0.04887223634735035 0.017351450299002272 0.0034130948953878396 0.01454321770601375 -0.03682658606262065 -0.027140057903910126 24.092921583416864 0.02267597443679246 -0.006378288704872663 28.87795044681148 0.014940086518249547 -0.024468521293728573 28.874786151183972 -0.016067168949371814 0.038863407023448066 2.9524443804544727 0.954304453517163 11.481128089514831 -69.18337992503817 24.943372173033186 -8.968518445223872 -20.823298880368323 4.245483609266842 -74.16272086950092 -13.996158028128459 0.3125384729371167 1.5481122417652111 -0.4557439279506855 0.09508694335962306 -8.098981083834675 -0.031778325554886175 0.02967682093131636 44.55385405250376 -0.010159315010808998 -0.04704736649762037 44.5588191422964 12.45218930216969 -0.0012927275518781383 0.04927133326157007 0.005479295871678625 0.024091205152769954 0.014771328509337902 0.04086742500598701 -0.038531351618309985 0.0282749182263975 11.13184667178706 0.010957009653008486 0.008249173217325106 -0.0464862920219558 0.015888770147305505 -0.017721359828106516 -0.019598642949401262 0.02367022009017432 0.04463357591299914 4.755701190057595 0.011465223094343542 -0.04212550278737901 -0.021369854415647434 -0.025852526451179636 -0.03033139732679193 0.031955094068080045 0.025052378800091837 -0.02579622596945964 -5.5634631104251655 0.03436026272845482 0.04583989612608081 -6.693123333389942 0.014010639039780778 0.03133857073043947 -6.769499195114771 0.041968027015938256 -0.047382736875336354 0.025318410080271997 -0.032201183691049275 -0.007543300677764692 8.006840769712745 3.474724503457402 -19.192248897607385 0.04445141688884784 10.351887133574028 -0.029724966999064174 -5.576150421232468 -15.684572644847679 3.2365103654233374 0.011228251403775456 0.00014284741722166253 -0.025101580366778984 -0.006514224658135404 4.708809187215749 -0.024815242156042375 12.466678732867946 -8.226664268310158 6.925890596790321 -0.04498956676898604 46.340727217810304 0.047717095091470665 -4.303044824987648 -14.745145362392249 -3.8770873207067678 0.03509255335468926 0.039095926032734 0.018164266638691775 -0.008043144457078858 -10.714897238318098 0.02717363239819856 
0.005737154175455507 -0.017524220837665652 -0.016595943216483864 -0.04590861116011802 0.033800384127603875 0.0006142792766510694 -4.238128353811454 2.5763514804600134 -0.6377478555306224 -0.8789237416061116 3.5376587293441792 0.39484005251086063 -1.2103117430648282 -1.3809440788366378 -1.0124919593206994 -0.10161181637373369 0.2779305299842929 -0.8793084609507091 0.08626672049208509 10.678951013101214 -0.8755166981497434 -0.09153532914001433 -1.3985808272216946 -4.50230785683687 0.3387155742684968 -17.01496229291755 -0.3401710446908328 -2.1135138383853027 1.2062334803622485 -12.857604025319032 72.15407572774672 9.606480853224493 10.972845094779053 37.71739513093356 6.11477604565903 95.93591809852153 18.950610201091706 -0.26878823334827806 -4.10251757347373 4.577615201134859 -0.13842186568458614 -1.6305369804210879 0.0272561447281382 -0.04831915158010067 -56.26969235386073 -0.035118356607856616 0.04588431958374198 -56.23593015884238 -38.76983884475239 -0.016594009664083174 -0.028826605869143613 0.017263990320370855 0.040609702952915605 0.01953053009322742 -0.0037421904485584745 0.04430024401921797 0.021589710166859996 -36.73644449324837 0.03782435938002214 0.02091926963477908 -0.042471081345419 -0.014280010942067892 0.03324451104467696 0.035202627107541004 0.0008363163388285222 0.0025114023848770593 -19.729861394939096 -0.006852298059956795 0.04015093503514307 0.009986967569097024 0.03327864820720367 0.029416666830923067 0.045553676832331295 0.012407844454112837 -0.011172302764108702 24.081868194050188 -0.02659452234920548 0.03587161054068247 28.90217856326536 -0.031047904943155295 -0.016956331497312918 28.83806591518897 0.04267343234694769 0.01080172141332632 2.926191614068056 0.9522687753742841 11.406534978544698 -69.12134950432191 25.14090019947838 -8.63137918151355 -20.633229855807734 4.164397662945361 -73.4787302827069 -13.707109118570326 0.2765541890397795 1.6410103656889432 -0.5229305535368683 0.03694510034618406 -8.173798556877989 -0.04309779672228066 0.011917337738987623 44.53641513455656 0.015221536720815247 -0.03643821479691129 44.59433283151249 12.447722135389252 -0.004913774013967394 -0.014772722139532284 0.01063549482676777 -0.03447368826205933 -0.03901565642398593 -0.043441102418571374 0.014446830764532221 -0.03203921318045748 11.059538094056172 -0.03680814140122444 -0.04575540765965553 0.018980281577940076 -0.016478580044873594 -0.04451571606000593 0.020087178322713357 0.006634107278376282 -0.04838881544735038 4.820909157435289 0.014806091012463302 0.0023566616058616143 -0.03887380178991866 -0.0014905001737636923 -0.004508683337324191 0.028293456546566016 -0.027744919767759835 -0.03834186648545731 -5.59144513687513 -0.04609220220787323 -0.007193305576049791 -6.728270313137585 0.04999167087328532 0.023405401664700586 -6.742226446736016 -0.04967025393615527 0.03852029031803428 0.04896345703771553 0.028099090612540407 -0.04265979130047525 8.05182360676814 3.5044153373448403 -19.229501412950242 -0.02503947721716368 10.443689138649306 0.04989015850844318 -5.612413354556555 -15.63543042609353 3.148583140690456 0.02948253254345298 0.00025390749656684173 0.030429583138226794 -0.042654470297325824 4.693227795946522 -0.003549143414848594 12.46472819833435 -8.274027023105099 6.847939240407816 0.005215388984086184 46.34362652282362 -0.01783498678993821 -4.365939486403058 -14.744640259572675 -3.8177022094754447 0.0018627318473846007 -0.011250874932767383 -0.015323319788926737 -0.006695488725606845 -10.73379984005894 0.022227703760516776 
-0.02135302194597724 0.04356523502975037 0.009443198964236375 0.023595672943334343 0.003830374395717507 -0.03401141614947794 -4.208488403153469 2.3947865818254295 -0.6294950657755976 -0.9486318533899952 3.5864699984584485 0.3927246908450608 -1.2660773615870433 -1.4919442871047612 -1.0505837517663195 -0.16205404153945668 0.22108529202140084 -0.8749519655872866 0.12793490264289953 10.907130408908722 -0.8495349807828262 -0.08454031167770498 -1.2583878749377309 -4.503210548355731 0.30204087768712795 -16.782230020691266 -0.36342736479545107 -2.1412479893104712 1.2989638082476083 -12.971943747593533 72.14767358264004 9.305219737847258 10.990720508049323 39.093203663797695 6.157830767817813 96.03214626421865 18.88747238726016 -0.26584656896108194 -4.125594779381008 4.55535330536652 -0.09725295579912954 -1.6342346330021855 0.0489819867194513 0.012965688503879259 -56.20421561421499 -0.006495293272213522 -0.04727799398850319 -56.19793270605021 -38.79213269957375 0.006916096966092523 -0.010296876571123855 0.0056334684487249305 0.002202859347080815 -0.03147165383848357 -0.018268132050655833 0.03436608122210699 0.02130968250795308 -36.64964410211437 -0.048426967161158074 -0.011202558945381512 0.0239911731631214 -0.023386758366154677 0.00666156809525881 0.0022220006288756044 0.044714084094175564 -0.02270004846873728 -19.78490218862448 -0.02175847769260951 0.028166909664357948 0.02541192290186927 0.020281510396074794 0.01081503701426613 -0.01643921263916536 -0.03954650496882599 0.003914063265456211 24.019805443429387 -0.0358105408539258 -0.022978566671453666 28.854241580315144 0.004013569956937207 -0.022347906938398526 28.89606670175281 -0.024727411715087126 -0.03287752852738678 2.931174213999308 0.9555657556211282 11.44950764197201 -69.09831697655534 25.364709110444956 -8.502264597539476 -20.744888926449967 4.4206639375497065 -73.19551223445134 -13.388307783599815 0.17234216160349453 1.7345682649494703 -0.5013063028435749 0.11068323151927188 -8.096169552307046 -0.024543144668651675 -0.00108169077971091 44.60099861622387 -0.015182767727203119 0.0030905375849130455 44.538923131546724 12.453462071153364 0.014135437409677458 -0.030722351330248844 0.017707700949380824 0.029450278487748033 -0.03856832510709887 -0.004676710792717783 0.0009642773549266224 0.013409855908473989 11.073298937218679 -0.041950658514103664 0.022452938275773927 0.024317542412023472 0.030830106433386885 -0.027979243502749072 -0.037448733925487594 -0.01720508525410818 0.03626219758310386 4.746690260462909 0.02498795584408088 -0.037466449213303554 0.014796320840064632 0.029682771634142957 -0.03910648789987815 -0.037495421949584544 -0.035686206863027786 0.013857438311104009 -5.63107367309463 0.027576093187527077 0.015642175749766656 -6.730489779766949 -0.034824725658293684 -0.019256084514579597 -6.723378223673609 0.03239938193456403 -0.0007873395370950648 0.02778979416043791 -0.015865822219956516 -0.01675306031276873 8.047513849653729 3.454799208043911 -19.17779274400893 0.04542803347188325 10.416235089034473 -0.015032023879811736 -5.63729990954879 -15.668379748247187 3.1572320884948275 -0.01938025684576953 0.0030232516200691547 -0.013188313335238223 0.03764356369811776 4.73329237649829 -0.02960083390115145 12.444035503113456 -8.19625832056207 6.844797639785072 -0.024576958335499086 46.422730220499076 0.011628145504063674 -4.342331056536347 -14.74544256180753 -3.80751262302601 0.002901134657680268 -0.022859338070139797 -0.001166413632862524 -0.02210517863116831 -10.717678078576435 -0.019645157679895116 
